<svg height="1438" width="720" xmlns="http://www.w3.org/2000/svg">
<rect height="1438" fill="#555" width="720"></rect>
<text fill="#7f7" font-family="Courier New" font-size="12" xml:space="preserve">
<tspan x="10" y="26"></tspan>
<tspan x="10" y="42">&gt; npmdoc-cli@0.0.1 test /home/travis/build/npmdoc/node-npmdoc-cli</tspan>
<tspan x="10" y="58">&gt; (set -e; export PORT=$(utility2 shServerPortRandom); utility2 test test.js)</tspan>
<tspan x="10" y="74"></tspan>
<tspan x="10" y="90"></tspan>
<tspan x="10" y="106">[MODE_BUILD=npmTest] - 2017-04-02T17:42:54Z - npm-testing /home/travis/build/npmdoc/node-npmdoc-\</tspan>
<tspan x="10" y="122">cli</tspan>
<tspan x="10" y="138"></tspan>
<tspan x="10" y="154"></tspan>
<tspan x="10" y="170">covering $ /home/travis/.nvm/versions/node/v6.10.1/bin/node /home/travis/build/npmdoc/node-npmdo\</tspan>
<tspan x="10" y="186">c-cli/test.js</tspan>
<tspan x="10" y="202">merging file:///home/travis/build/npmdoc/node-npmdoc-cli/tmp/build/test-report.json to test-repo\</tspan>
<tspan x="10" y="218">rt</tspan>
<tspan x="10" y="234">&gt; server listening on http-port 42877</tspan>
<tspan x="10" y="250">Usage:</tspan>
<tspan x="10" y="266">  test.js [OPTIONS] &lt;command&gt; [ARGS]</tspan>
<tspan x="10" y="282"></tspan>
<tspan x="10" y="298">Options: </tspan>
<tspan x="10" y="314">  -h, --help             Display help and usage details</tspan>
<tspan x="10" y="330"></tspan>
<tspan x="10" y="346">Commands: </tspan>
<tspan x="10" y="362">  edit, install, ls, remove, test, uninstall</tspan>
<tspan x="10" y="378">Xlib:  extension "RANDR" missing on display ":99.0".</tspan>
<tspan x="10" y="394">Xlib:  extension "RANDR" missing on display ":99.0".</tspan>
<tspan x="10" y="410">merging file:///home/travis/build/npmdoc/node-npmdoc-cli/tmp/build/test-report.json to test-repo\</tspan>
<tspan x="10" y="426">rt</tspan>
<tspan x="10" y="442">Xlib:  extension "RANDR" missing on display ":99.0".</tspan>
<tspan x="10" y="458">[4928:0402/174256:WARNING:audio_manager.cc(314)] Multiple instances of AudioManager detected</tspan>
<tspan x="10" y="474">[4928:0402/174256:WARNING:audio_manager.cc(275)] Multiple instances of AudioManager detected</tspan>
<tspan x="10" y="490">[4968:0402/174256:ERROR:sandbox_linux.cc(343)] InitializeSandbox() called with multiple threads \</tspan>
<tspan x="10" y="506">in process gpu-process. </tspan>
<tspan x="10" y="522">[4928:0402/174256:ERROR:browser_gpu_channel_host_factory.cc(131)] Failed to create channel.</tspan>
<tspan x="10" y="538">&gt; server listening on http-port 50312</tspan>
<tspan x="10" y="554">merging file:///home/travis/build/npmdoc/node-npmdoc-cli/tmp/build/test-report.json to test-repo\</tspan>
<tspan x="10" y="570">rt</tspan>
<tspan x="10" y="586">Xlib:  extension "RANDR" missing on display ":99.0".</tspan>
<tspan x="10" y="602">[4941:0402/174256:WARNING:audio_manager.cc(314)] Multiple instances of AudioManager detected</tspan>
<tspan x="10" y="618">[4941:0402/174256:WARNING:audio_manager.cc(275)] Multiple instances of AudioManager detected</tspan>
<tspan x="10" y="634"></tspan>
<tspan x="10" y="650">browserTest - opened url /home/travis/build/npmdoc/node-npmdoc-cli/tmp/build/apidoc.html</tspan>
<tspan x="10" y="666"></tspan>
<tspan x="10" y="682">[5013:0402/174256:ERROR:sandbox_linux.cc(343)] InitializeSandbox() called with multiple threads \</tspan>
<tspan x="10" y="698">in process gpu-process. </tspan>
<tspan x="10" y="714">[4941:0402/174256:ERROR:browser_gpu_channel_host_factory.cc(131)] Failed to create channel.</tspan>
<tspan x="10" y="730"></tspan>
<tspan x="10" y="746">browserTest - opened url http://127.0.0.1:42877?modeTest=1</tspan>
<tspan x="10" y="762"></tspan>
<tspan x="10" y="778">[4941:0402/174258:INFO:CONSOLE(245)] "----------|-----------|-----------|-----------|-----------\</tspan>
<tspan x="10" y="794">|</tspan>
<tspan x="10" y="810">File      |   % Stmts |% Branches |   % Funcs |   % Lines |</tspan>
<tspan x="10" y="826">----------|-----------|-----------|-----------|-----------|</tspan>
<tspan x="10" y="842">----------|-----------|-----------|-----------|-----------|</tspan>
<tspan x="10" y="858">All files |       100 |       100 |       100 |       100 |</tspan>
<tspan x="10" y="874">----------|-----------|-----------|-----------|-----------|</tspan>
<tspan x="10" y="890">", source: file:///home/travis/build/npmdoc/node-npmdoc-cli/tmp/electron.15b2fc33ab80.b0165b4149\</tspan>
<tspan x="10" y="906">b21.html (245)</tspan>
<tspan x="10" y="922">[4941:0402/174258:INFO:CONSOLE(245)] "created coverage file:///tmp/build/coverage.html/index.htm\</tspan>
<tspan x="10" y="938">l", source: file:///home/travis/build/npmdoc/node-npmdoc-cli/tmp/electron.15b2fc33ab80.b0165b414\</tspan>
<tspan x="10" y="954">9b21.html (245)</tspan>
<tspan x="10" y="970"></tspan>
<tspan x="10" y="986">browserTest - created screen-capture file:///home/travis/build/npmdoc/node-npmdoc-cli/tmp/build/\</tspan>
<tspan x="10" y="1002">screen-capture.npmTest.browser._2Fhome_2Ftravis_2Fbuild_2Fnpmdoc_2Fnode-npmdoc-cli_2Ftmp_2Fbuild\</tspan>
<tspan x="10" y="1018">_2Fapidoc.html.png</tspan>
<tspan x="10" y="1034"></tspan>
<tspan x="10" y="1050">browserTest - created screen-capture file:///home/travis/build/npmdoc/node-npmdoc-cli/tmp/build/\</tspan>
<tspan x="10" y="1066">screen-capture.npmTest.browser._2Fhome_2Ftravis_2Fbuild_2Fnpmdoc_2Fnode-npmdoc-cli_2Ftmp_2Fbuild\</tspan>
<tspan x="10" y="1082">_2Fapidoc.html.html</tspan>
<tspan x="10" y="1098"></tspan>
<tspan x="10" y="1114">browserTest - created screen-capture file:///home/travis/build/npmdoc/node-npmdoc-cli/tmp/build/\</tspan>
<tspan x="10" y="1130">screen-capture.npmTest.browser..png</tspan>
<tspan x="10" y="1146"></tspan>
<tspan x="10" y="1162">browserTest - created screen-capture file:///home/travis/build/npmdoc/node-npmdoc-cli/tmp/build/\</tspan>
<tspan x="10" y="1178">screen-capture.npmTest.browser..html</tspan>
<tspan x="10" y="1194">merging file:///home/travis/build/npmdoc/node-npmdoc-cli/tmp/build/test-report.json to test-repo\</tspan>
<tspan x="10" y="1210">rt</tspan>
<tspan x="10" y="1226"></tspan>
<tspan x="10" y="1242">-------------------------------------------------------</tspan>
<tspan x="10" y="1258">| test-report - buildNpmdoc - node - linux v6.10.1 - 2017-04-02T17:42:37.936Z</tspan>
<tspan x="10" y="1274">|   27583 ms            0 failed        6 passed      |</tspan>
<tspan x="10" y="1290">-------------------------------------------------------</tspan>
<tspan x="10" y="1306"></tspan>
<tspan x="10" y="1322">created test-report file:///home/travis/build/npmdoc/node-npmdoc-cli/tmp/build/test-report.html</tspan>
<tspan x="10" y="1338"></tspan>
<tspan x="10" y="1354"></tspan>
<tspan x="10" y="1370">npmTest - 0 failed tests</tspan>
<tspan x="10" y="1386"></tspan>
<tspan x="10" y="1402"></tspan>
<tspan x="10" y="1418">[MODE_BUILD=npmTest] - 2017-04-02T17:43:08Z - EXIT_CODE - 0</tspan>
</text>
</svg>
